<svg width="18" height="18" viewBox="0 0 18 18" fill="none" xmlns="http://www.w3.org/2000/svg">
<path d="M9.00008 15.6667C5.32508 15.6667 2.33341 12.675 2.33341 9.00002C2.33341 5.32502 5.32508 2.33335 9.00008 2.33335C12.6751 2.33335 15.6667 5.32502 15.6667 9.00002C15.6667 12.675 12.6751 15.6667 9.00008 15.6667ZM9.00008 0.666687C4.39175 0.666687 0.666748 4.39169 0.666748 9.00002C0.666748 13.6084 4.39175 17.3334 9.00008 17.3334C13.6084 17.3334 17.3334 13.6084 17.3334 9.00002C17.3334 4.39169 13.6084 0.666687 9.00008 0.666687ZM11.1584 5.66669L9.00008 7.82502L6.84175 5.66669L5.66675 6.84169L7.82508 9.00002L5.66675 11.1584L6.84175 12.3334L9.00008 10.175L11.1584 12.3334L12.3334 11.1584L10.1751 9.00002L12.3334 6.84169L11.1584 5.66669Z" fill="#FF3B30"/>
</svg>
