<svg width="16" height="16" viewBox="0 0 16 16" fill="none" xmlns="http://www.w3.org/2000/svg">
<path d="M12.6665 5.33334L9.99984 8.00001H11.9998C11.9998 9.06087 11.5784 10.0783 10.8283 10.8284C10.0781 11.5786 9.0607 12 7.99984 12C7.33317 12 6.6865 11.8333 6.13317 11.5333L5.15984 12.5067C5.97984 13.0267 6.95317 13.3333 7.99984 13.3333C9.41433 13.3333 10.7709 12.7714 11.7711 11.7712C12.7713 10.771 13.3332 9.41449 13.3332 8.00001H15.3332M3.99984 8.00001C3.99984 6.93914 4.42126 5.92172 5.17141 5.17158C5.92156 4.42143 6.93897 4.00001 7.99984 4.00001C8.6665 4.00001 9.31317 4.16667 9.8665 4.46667L10.8398 3.49334C10.0198 2.97334 9.0465 2.66667 7.99984 2.66667C6.58535 2.66667 5.2288 3.22857 4.2286 4.22877C3.22841 5.22896 2.6665 6.58552 2.6665 8.00001H0.666504L3.33317 10.6667L5.99984 8.00001" fill="#5856D6"/>
</svg>
